<svg xmlns="http://www.w3.org/2000/svg" version="1.1" xmlns:xlink="http://www.w3.org/1999/xlink" xmlns:svgjs="http://svgjs.dev/svgjs" width="1500" height="1500" viewBox="0 0 1500 1500"><rect width="1500" height="1500" fill="#ffffff"></rect><g transform="matrix(0.6666666666666666,0,0,0.6666666666666666,249.39393939393938,438.58569500674764)"><svg viewBox="0 0 396 247" data-background-color="#ffffff" preserveAspectRatio="xMidYMid meet" height="935" width="1500" xmlns="http://www.w3.org/2000/svg" xmlns:xlink="http://www.w3.org/1999/xlink"><g id="tight-bounds" transform="matrix(1,0,0,1,0.2400000000000091,-0.09999999999999432)"><svg viewBox="0 0 395.52 247.2" height="247.2" width="395.52"><g><svg></svg></g><g><svg viewBox="0 0 395.52 247.2" height="247.2" width="395.52"><g transform="matrix(1,0,0,1,75.54432,89.26221546483704)"><svg viewBox="0 0 244.43135999999998 68.6755690703259" height="68.6755690703259" width="244.43135999999998"><g><svg viewBox="0 0 244.43135999999998 68.6755690703259" height="68.6755690703259" width="244.43135999999998"><g><svg viewBox="0 0 244.43135999999998 68.6755690703259" height="68.6755690703259" width="244.43135999999998"><g><svg viewBox="0 0 244.43135999999998 68.6755690703259" height="68.6755690703259" width="244.43135999999998"><g id="textblocktransform"><svg viewBox="0 0 244.43135999999998 68.6755690703259" height="68.6755690703259" width="244.43135999999998" id="textblock"><g><svg viewBox="0 0 244.43135999999998 68.6755690703259" height="68.6755690703259" width="244.43135999999998"><g transform="matrix(1,0,0,1,0,0)"><svg width="244.43135999999998" viewBox="1.25 -38.99 142.32 39.99" height="68.6755690703259" data-palette-color="#000000"><path d="M9.16-36.21L9.16-21.19Q11.3-23.39 13.48-24.39 15.65-25.39 18.26-25.39L18.26-25.39Q20.46-25.39 22.3-24.38 24.15-23.36 25.34-21.7 26.54-20.04 27.2-17.96 27.86-15.87 27.86-13.65L27.86-13.65Q27.86-7.1 24.4-3.31 20.95 0.49 14.4 0.49L14.4 0.49Q11.79 0.49 9.3 0.05L9.3 0.05 9.25 0.05Q6.84 0.05 5.35 0.56L5.35 0.56 5.15 0.15Q5.47-0.32 5.55-0.89 5.64-1.46 5.64-2.95L5.64-2.95 5.64-31.69Q5.64-34.91 4.94-36.13 4.25-37.35 2.05-37.35L2.05-37.35 1.34-37.35 1.25-37.79Q5.27-38.99 8.64-38.99L8.64-38.99Q9.16-37.72 9.16-36.21L9.16-36.21ZM9.16-19.24L9.16-19.24 9.16-2.81Q10.33-2.17 12.27-1.76 14.21-1.34 16.16-1.34L16.16-1.34Q18.07-1.34 19.47-1.87 20.87-2.39 21.73-3.28 22.58-4.17 23.11-5.62 23.63-7.06 23.82-8.64 24-10.23 24-12.35L24-12.35Q24-17.92 22.12-20.79 20.24-23.66 17.14-23.66L17.14-23.66Q15.21-23.66 13.12-22.52 11.04-21.39 9.16-19.24ZM51.34-17.65L51.34-2.76Q51.34-2.34 51.52-1.99 51.71-1.64 51.96-1.4 52.22-1.17 52.71-0.95 53.2-0.73 53.56-0.61 53.93-0.49 54.59-0.29L54.59-0.29 54.39 0.29Q52.83 0 51.29 0L51.29 0Q49.36 0 47.48 0.39L47.48 0.39 47.34 0.15Q47.85-0.56 47.85-2.44L47.85-2.44 47.85-4.05Q46.63-1.78 44.05-0.39 41.48 1 38.84 1L38.84 1Q36.03 1 34.31-0.45 32.59-1.9 32.59-4.76L32.59-4.76Q32.59-6.62 33.36-8.07 34.13-9.52 35.41-10.53 36.69-11.55 38.71-12.33 40.72-13.11 42.86-13.6 44.99-14.09 47.85-14.5L47.85-14.5 47.85-16.75Q47.85-23.46 42.55-23.46L42.55-23.46Q40.84-23.46 38.36-22.62 35.89-21.78 34.2-20.41L34.2-20.41 33.2-21.56Q35.32-23.24 38.24-24.34 41.16-25.44 43.7-25.44L43.7-25.44Q44.82-25.44 45.83-25.23 46.85-25.02 47.89-24.48 48.92-23.93 49.67-23.08 50.41-22.24 50.88-20.84 51.34-19.43 51.34-17.65L51.34-17.65ZM39.99-0.85L39.99-0.85Q42.11-0.85 44.43-2.26 46.75-3.66 47.85-5.76L47.85-5.76 47.85-13.21Q41.6-12.3 38.93-10.44 36.25-8.57 36.25-5L36.25-5Q36.25-2.83 37.18-1.84 38.11-0.85 39.99-0.85ZM62.47-2.44L62.47-18.09Q62.47-19.73 62.31-20.83 62.15-21.92 61.75-22.58 61.35-23.24 60.64-23.51 59.93-23.78 59.14-23.78 58.34-23.78 58.17-23.75L58.17-23.75 58.08-24.19Q62.06-25.39 65.47-25.39L65.47-25.39Q65.99-24.1 65.99-22.61L65.99-22.61 65.99-21.9Q67.4-22.85 68.6-23.56 69.79-24.27 70.95-24.76 72.11-25.24 73.33-25.49 74.56-25.73 76.02-25.73L76.02-25.73Q77.34-25.73 78.64-25.39 79.95-25.05 80.99-24.17 82.03-23.29 82.67-21.78 83.32-20.26 83.32-17.94L83.32-17.94 83.32-2.76Q83.32-2.17 83.6-1.78 83.88-1.39 84.33-1.12 84.79-0.85 85.37-0.67 85.96-0.49 86.59-0.29L86.59-0.29 86.37 0.29Q85 0 82.73 0L82.73 0Q81.34 0 79.49 0.39L79.49 0.39 79.34 0.15Q79.83-0.56 79.83-2.44L79.83-2.44 79.83-17.04Q79.83-19.09 79.44-20.4 79.05-21.7 78.38-22.45 77.7-23.19 76.81-23.49 75.92-23.78 74.92-23.78L74.92-23.78Q73.7-23.78 72.64-23.56 71.58-23.34 70.52-22.89 69.45-22.44 68.35-21.77 67.26-21.09 65.99-20.19L65.99-20.19 65.99-3.34Q65.99-2.56 66.11-2.09 66.23-1.61 66.62-1.29 67.01-0.98 67.72-0.73 68.43-0.49 69.58-0.2L69.58-0.2 69.38 0.39Q67.96 0.2 66.97 0.1 65.99 0 65.38 0L65.38 0Q63.98 0 62.13 0.39L62.13 0.39 61.98 0.15Q62.47-0.56 62.47-2.44L62.47-2.44ZM109.83-17.65L109.83-2.76Q109.83-2.34 110.01-1.99 110.2-1.64 110.45-1.4 110.71-1.17 111.2-0.95 111.69-0.73 112.05-0.61 112.42-0.49 113.08-0.29L113.08-0.29 112.88 0.29Q111.32 0 109.78 0L109.78 0Q107.85 0 105.97 0.39L105.97 0.39 105.83 0.15Q106.34-0.56 106.34-2.44L106.34-2.44 106.34-4.05Q105.12-1.78 102.54-0.39 99.97 1 97.33 1L97.33 1Q94.52 1 92.8-0.45 91.08-1.9 91.08-4.76L91.08-4.76Q91.08-6.62 91.85-8.07 92.62-9.52 93.9-10.53 95.18-11.55 97.2-12.33 99.21-13.11 101.35-13.6 103.48-14.09 106.34-14.5L106.34-14.5 106.34-16.75Q106.34-23.46 101.04-23.46L101.04-23.46Q99.33-23.46 96.86-22.62 94.38-21.78 92.69-20.41L92.69-20.41 91.69-21.56Q93.82-23.24 96.73-24.34 99.65-25.44 102.19-25.44L102.19-25.44Q103.31-25.44 104.33-25.23 105.34-25.02 106.38-24.48 107.41-23.93 108.16-23.08 108.9-22.24 109.37-20.84 109.83-19.43 109.83-17.65L109.83-17.65ZM98.48-0.85L98.48-0.85Q100.6-0.85 102.92-2.26 105.24-3.66 106.34-5.76L106.34-5.76 106.34-13.21Q100.09-12.3 97.42-10.44 94.74-8.57 94.74-5L94.74-5Q94.74-2.83 95.67-1.84 96.6-0.85 98.48-0.85ZM124.48-36.21L124.48-4.39Q124.48-2.47 125.38-1.54 126.28-0.61 128.58-0.2L128.58-0.2 128.38 0.39Q125.58 0 124.05 0 122.52 0 120.62 0.39L120.62 0.39 120.47 0.15Q120.96-0.56 120.96-2.44L120.96-2.44 120.96-31.69Q120.96-35.16 120.14-36.34 119.33-37.52 116.66-37.35L116.66-37.35 116.57-37.79Q120.6-38.99 123.96-38.99L123.96-38.99Q124.48-37.72 124.48-36.21L124.48-36.21ZM135.95-2.44L135.95-18.09Q135.95-21.56 135.13-22.74 134.31-23.93 131.65-23.75L131.65-23.75 131.55-24.19Q135.58-25.39 138.95-25.39L138.95-25.39Q139.47-24.12 139.47-22.61L139.47-22.61 139.47-4.39Q139.47-2.47 140.37-1.54 141.27-0.61 143.57-0.2L143.57-0.2 143.37 0.39Q140.56 0 139.04 0 137.51 0 135.61 0.39L135.61 0.39 135.46 0.15Q135.95-0.56 135.95-2.44L135.95-2.44ZM133.46-34.45L133.46-34.45Q135.78-35.79 138.71-36.69L138.71-36.69Q138.71-34.67 139.37-32.69L139.37-32.69 139.05-32.25Q136.73-32.1 134.22-30.96L134.22-30.96Q133.61-32.64 133.46-34.45Z" opacity="1" transform="matrix(1,0,0,1,0,0)" fill="#000000" class="wordmark-text-0" data-fill-palette-color="primary" id="text-0"></path></svg></g></svg></g></svg></g></svg></g><g></g></svg></g></svg></g></svg></g><g><path d="M86.489 73.05A122.216 122.216 0 0 1 309.031 73.05L302.838 73.05A116.022 116.022 0 0 0 92.682 73.05L86.489 73.05M86.489 174.15A122.216 122.216 0 0 0 309.031 174.15L302.838 174.15A116.022 116.022 0 0 1 92.682 174.15L86.489 174.15" fill="#000000" stroke="transparent" data-fill-palette-color="tertiary"></path></g></svg></g><defs></defs></svg><rect width="395.52" height="247.2" fill="none" stroke="none" visibility="hidden"></rect></g></svg></g></svg>